<svg xmlns="http://www.w3.org/2000/svg" xmlns:xlink="http://www.w3.org/1999/xlink" width="500" zoomAndPan="magnify" viewBox="0 0 375 374.999991" height="500" preserveAspectRatio="xMidYMid meet" version="1.0"><defs><g/></defs><path stroke-linecap="butt" transform="matrix(0.75, 0, 0, 0.75, 11.861295, 298.067148)" fill="none" stroke-linejoin="miter" d="M -0.00256 9.999012 L 468.372471 9.999012 " stroke="#0d1950" stroke-width="20" stroke-opacity="1" stroke-miterlimit="4"/><path stroke-linecap="butt" transform="matrix(0.75, 0, 0, 0.75, 11.861295, 51.653632)" fill="none" stroke-linejoin="miter" d="M -0.00256 9.998283 L 466.440179 9.998283 " stroke="#ffffff" stroke-width="20" stroke-opacity="1" stroke-miterlimit="4"/><path stroke-linecap="butt" transform="matrix(-0.00360641, -0.749991, 0.749991, -0.00360641, 13.037581, 261.12054)" fill="none" stroke-linejoin="miter" d="M -0.0019593 10.002083 L 277.657542 9.99868 " stroke="#ffffff" stroke-width="20" stroke-opacity="1" stroke-miterlimit="4"/><g fill="#ffde59" fill-opacity="1"><g transform="translate(57.349518, 217.29447)"><g><path d="M 39.921875 0 C 37.523438 0 35.5625 -0.742188 34.03125 -2.234375 C 32.5 -3.734375 31.734375 -5.585938 31.734375 -7.796875 L 31.734375 -82.015625 L 48.359375 -82.015625 L 48.359375 -7.796875 C 48.359375 -5.585938 47.566406 -3.734375 45.984375 -2.234375 C 44.410156 -0.742188 42.390625 0 39.921875 0 Z M 11.640625 -74.84375 C 9.421875 -74.84375 7.566406 -75.523438 6.078125 -76.890625 C 4.585938 -78.253906 3.84375 -80.046875 3.84375 -82.265625 C 3.84375 -84.484375 4.585938 -86.253906 6.078125 -87.578125 C 7.566406 -88.898438 9.421875 -89.5625 11.640625 -89.5625 L 68.453125 -89.5625 C 70.660156 -89.5625 72.507812 -88.878906 74 -87.515625 C 75.5 -86.148438 76.25 -84.359375 76.25 -82.140625 C 76.25 -79.921875 75.5 -78.148438 74 -76.828125 C 72.507812 -75.503906 70.660156 -74.84375 68.453125 -74.84375 Z M 11.640625 -74.84375 "/></g></g></g><g fill="#ffde59" fill-opacity="1"><g transform="translate(137.442656, 217.29447)"><g><path d="M 17.78125 -89.5625 C 19.832031 -89.5625 21.644531 -88.8125 23.21875 -87.3125 C 24.800781 -85.820312 25.59375 -83.96875 25.59375 -81.75 L 25.59375 -7.796875 C 25.59375 -5.585938 24.78125 -3.734375 23.15625 -2.234375 C 21.53125 -0.742188 19.65625 0 17.53125 0 C 15.132812 0 13.210938 -0.742188 11.765625 -2.234375 C 10.316406 -3.734375 9.59375 -5.585938 9.59375 -7.796875 L 9.59375 -81.75 C 9.59375 -83.96875 10.359375 -85.820312 11.890625 -87.3125 C 13.429688 -88.8125 15.394531 -89.5625 17.78125 -89.5625 Z M 74.453125 -89.5625 C 76.847656 -89.5625 78.769531 -88.8125 80.21875 -87.3125 C 81.664062 -85.820312 82.390625 -83.96875 82.390625 -81.75 L 82.390625 -7.796875 C 82.390625 -5.585938 81.640625 -3.734375 80.140625 -2.234375 C 78.648438 -0.742188 76.671875 0 74.203125 0 C 72.160156 0 70.347656 -0.742188 68.765625 -2.234375 C 67.191406 -3.734375 66.40625 -5.585938 66.40625 -7.796875 L 66.40625 -81.75 C 66.40625 -83.96875 67.210938 -85.820312 68.828125 -87.3125 C 70.453125 -88.8125 72.328125 -89.5625 74.453125 -89.5625 Z M 17.40625 -52.328125 L 74.453125 -52.328125 L 74.453125 -37.609375 L 17.40625 -37.609375 Z M 17.40625 -52.328125 "/></g></g></g><g fill="#ffde59" fill-opacity="1"><g transform="translate(229.434611, 217.29447)"><g><path d="M 74.96875 -89.8125 C 77.101562 -89.8125 78.957031 -89.109375 80.53125 -87.703125 C 82.113281 -86.296875 82.90625 -84.523438 82.90625 -82.390625 C 82.90625 -81.285156 82.648438 -80.132812 82.140625 -78.9375 L 50.53125 -4.984375 C 49.769531 -3.285156 48.679688 -2.03125 47.265625 -1.21875 C 45.859375 -0.40625 44.429688 0 42.984375 0 C 41.617188 -0.0820312 40.296875 -0.53125 39.015625 -1.34375 C 37.742188 -2.15625 36.765625 -3.328125 36.078125 -4.859375 L 4.484375 -79.0625 C 4.222656 -79.570312 4.050781 -80.101562 3.96875 -80.65625 C 3.882812 -81.21875 3.84375 -81.753906 3.84375 -82.265625 C 3.84375 -84.734375 4.738281 -86.628906 6.53125 -87.953125 C 8.320312 -89.273438 10.023438 -89.9375 11.640625 -89.9375 C 14.878906 -89.9375 17.222656 -88.273438 18.671875 -84.953125 L 46.703125 -19.0625 L 42.21875 -18.9375 L 67.9375 -84.953125 C 69.382812 -88.191406 71.726562 -89.8125 74.96875 -89.8125 Z M 74.96875 -89.8125 "/></g></g></g><g fill="#0d1950" fill-opacity="1"><g transform="translate(100.857119, 263.867913)"><g><path d="M 6.5 0 L 6.5 -18.28125 L 0.359375 -18.28125 L 0.359375 -20.640625 L 15.171875 -20.640625 L 15.171875 -18.28125 L 9.046875 -18.28125 L 9.046875 0 Z M 6.5 0 "/></g></g></g><g fill="#0d1950" fill-opacity="1"><g transform="translate(116.955001, 263.867913)"><g><path d="M 1.734375 0 L 1.734375 -2.359375 L 4.25 -2.359375 L 4.25 -18.28125 L 1.734375 -18.28125 L 1.734375 -20.640625 L 9.328125 -20.640625 L 9.328125 -18.28125 L 6.796875 -18.28125 L 6.796875 -2.359375 L 9.328125 -2.359375 L 9.328125 0 Z M 1.734375 0 "/></g></g></g><g fill="#0d1950" fill-opacity="1"><g transform="translate(128.573494, 263.867913)"><g><path d="M 2.4375 0 L 2.4375 -20.640625 L 5.90625 -20.640625 L 15.125 -4.03125 L 15.125 -20.640625 L 17.671875 -20.640625 L 17.671875 0 L 14.640625 0 L 5.59375 -16.296875 L 4.984375 -16.296875 L 4.984375 0 Z M 2.4375 0 "/></g></g></g><g fill="#0d1950" fill-opacity="1"><g transform="translate(149.234753, 263.867913)"><g/></g></g><g fill="#0d1950" fill-opacity="1"><g transform="translate(156.009901, 263.867913)"><g><path d="M 2.4375 0 L 2.4375 -20.640625 L 4.984375 -20.640625 L 4.984375 -11.984375 L 15.203125 -11.984375 L 15.203125 -20.640625 L 17.75 -20.640625 L 17.75 0 L 15.203125 0 L 15.203125 -9.71875 L 4.984375 -9.71875 L 4.984375 0 Z M 2.4375 0 "/></g></g></g><g fill="#0d1950" fill-opacity="1"><g transform="translate(176.727156, 263.867913)"><g><path d="M 4.84375 0 L 1.90625 -2.9375 L 1.90625 -17.703125 L 4.84375 -20.640625 L 14.59375 -20.640625 L 17.53125 -17.703125 L 17.53125 -2.9375 L 14.59375 0 Z M 5.984375 -2.265625 L 13.4375 -2.265625 L 14.984375 -3.8125 L 14.984375 -16.828125 L 13.4375 -18.375 L 5.984375 -18.375 L 4.453125 -16.828125 L 4.453125 -3.8125 Z M 8.484375 4.90625 L 8.484375 1.59375 L 10.953125 1.59375 L 10.953125 4.90625 Z M 8.484375 4.90625 "/></g></g></g><g fill="#0d1950" fill-opacity="1"><g transform="translate(196.71651, 263.867913)"><g><path d="M 4.84375 0 L 1.90625 -2.9375 L 1.90625 -17.703125 L 4.84375 -20.640625 L 14.171875 -20.640625 L 17.03125 -17.78125 L 15.40625 -16.125 L 13.15625 -18.375 L 5.984375 -18.375 L 4.453125 -16.828125 L 4.453125 -3.8125 L 5.984375 -2.265625 L 13.390625 -2.265625 L 15.65625 -4.53125 L 17.28125 -2.890625 L 14.359375 0 Z M 4.84375 0 "/></g></g></g><g fill="#0d1950" fill-opacity="1"><g transform="translate(215.390039, 263.867913)"><g/></g></g><g fill="#0d1950" fill-opacity="1"><g transform="translate(222.165193, 263.867913)"><g><path d="M 7.359375 0 L 0.359375 -20.640625 L 3.046875 -20.640625 L 9.015625 -2.4375 L 9.625 -2.4375 L 15.59375 -20.640625 L 18.28125 -20.640625 L 11.28125 0 Z M 7.359375 0 "/></g></g></g><g fill="#0d1950" fill-opacity="1"><g transform="translate(241.370643, 263.867913)"><g><path d="M 4.984375 0 L 2.046875 -2.9375 L 2.046875 -20.640625 L 4.59375 -20.640625 L 4.59375 -3.8125 L 6.125 -2.265625 L 13.546875 -2.265625 L 15.09375 -3.8125 L 15.09375 -20.640625 L 17.640625 -20.640625 L 17.640625 -2.9375 L 14.703125 0 Z M 4.984375 0 "/></g></g></g><g fill="#0d1950" fill-opacity="1"><g transform="translate(261.611968, 263.867913)"><g><path d="M 1.734375 0 L 1.734375 -2.359375 L 4.25 -2.359375 L 4.25 -18.28125 L 1.734375 -18.28125 L 1.734375 -20.640625 L 9.328125 -20.640625 L 9.328125 -18.28125 L 6.796875 -18.28125 L 6.796875 -2.359375 L 9.328125 -2.359375 L 9.328125 0 Z M 1.734375 0 "/></g></g></g><path stroke-linecap="butt" transform="matrix(-0.00520551, -0.749982, 0.749982, -0.00520551, 347.958848, 261.171252)" fill="none" stroke-linejoin="miter" d="M -0.00251442 9.997802 L 277.712526 9.99825 " stroke="#ffffff" stroke-width="20" stroke-opacity="1" stroke-miterlimit="4"/></svg>