<?xml version="1.0" encoding="UTF-8"?>
<svg version="1.1" viewBox="0 0 2032 876" width="1280" height="1280" xmlns="http://www.w3.org/2000/svg">
<path transform="translate(186,196)" d="m0 0h1085l1 1v379l-1 1h-1094l-1-1-1-264 1-106 5-6zm786 51-12 2-19 9-11 8-10 9-7 8-9 13-11 21-8 24-4 22v34l4 20 6 16 6 10 9 10 10 8 11 5 13 2h14l18-3 12-5 12-7 12-11 9-9 9-12 12-23 6-18 4-18 2-14v-23l-3-22-5-16-7-13-9-10-10-8-10-5-17-4zm211 0-14 1-15 4-13 7-12 9-13 12-12 16-8 14-8 18-6 20-3 18-1 10v13l2 17 4 16 5 12 7 11 10 10 11 7 13 5 7 1h22l16-3 14-6 12-8 6-5-1-5-3-1-12 7-15 8-13 4-7 1h-17l-12-3-9-5-10-9-7-8-7-14-3-11-2-12v-29l4-23 6-19 5-12 10-18 11-13 11-11 14-9 11-5 13-3h22l11 4 12 11 7 9 4 1 4-2-1-5-7-9-8-8-12-7-8-2zm-785 3-3 2-6 27-23 114-12 62-1 9 5 1 4-2 10-47 15-74 13-65 4-22-1-5zm196 0-2 2-9 41-19 96-10 57v5l-2-1-15-42-19-50-17-45-15-39-8-21-2-2h-9l-2 2-38 190-3 17v5h6l3-3 8-36 24-122 7-38 1-2 6 16 16 44 26 69 15 40 11 28 4 4 7-1 2-5 10-48 24-119 7-37v-4zm256 0-3 3-12 57-7 33v4h-116l4-16 15-76v-4h-8l-3 8-21 104-16 81-3 16v5l8-1 4-15 11-53 8-39v-2h115l-18 91-3 15v3l5 1 4-2 11-50 27-134 4-23v-5l-1-1zm-579 1-59 1 1 7 64 1-1 10-11 57-18 90-8 41v7h7l3-7 9-44 20-99 10-51v-4l68-1v-7l-61-1zm670 255-7 2-4 6v8l5 5h7l7-8v-8l-4-4z" fill="#BF941D"/>
<path transform="translate(968,255)" d="m0 0h25l13 4 10 6 7 7 8 13 6 17 3 18v32l-3 18-7 24-9 19-10 15-12 13-11 9-16 8-6 2-7 1h-20l-12-3-9-5-10-9-7-11-5-11-4-16-1-6-1-26 2-20 6-24 7-17 9-17 9-12 8-9 14-10 16-8z" fill="#BF941D"/>
<path transform="translate(1509,253)" d="m0 0h44l-1 10-21 106-2 15v18l3 13 6 8 10 5 8 2h8l10-4 8-6 6-7 7-15 4-14 15-73 11-55 2-3h42l-1 10-20 100-7 31-6 18-9 19-11 15-7 7-14 9-14 5-6 1h-35l-17-4-13-7-10-9-9-14-5-15-2-15v-17l3-21 7-36 15-75z" fill="#BF941D"/>
<path transform="translate(1308,253)" d="m0 0h46l1 6 5 104 1 26v37l3-3 13-30 17-39 45-100 1-1h48l-1 4-10 20-10 19-14 28-10 19-22 43-10 19-20 39-11 20-6 1h-46l-3-2-2-21-15-180z" fill="#BF941D"/>
<path transform="translate(1720,253)" d="m0 0h43l1 2-36 180-5 26-2 3-12 1h-26l-7-2 5-22 20-100 16-79z" fill="#BF941D"/>
<path transform="translate(1308,196)" d="m0 0h456v14l-1 1h-455z" fill="#A68E19"/>
<path transform="translate(1358,563)" d="m0 0 406 1v13l-1 1h-454l-1-1v-13z" fill="#A48E19"/>
<path transform="translate(1582,639)" d="m0 0 5 1 4 10 13 38v4l-6-1-4-10-1-5h-20l-3 14-4 2h-29l-4-1-1-50 1-1h7l1 46 23 1 2-9 9-27 5-10zm0 9-6 19v4h15l-2-9-4-12-1-2z" fill="#A2911C"/>
<path transform="translate(1222,640)" d="m0 0h7l3 5 9 24 1 6h3l3-11 7-18 2-6h8l1 36v15l-5 1-2-1-1-37-12 31-1 2-4-1-5-12-5-14-3-8v39l-1 1h-5l-1-1v-50z" fill="#8E8723"/>
<path transform="translate(1308,205)" d="m0 0 8 2 2 2h48l10-1 2-2 4 1 4 2 12-2h4v2l4-1 3 2 1-2h4l2-2v2h5l1-3 5 1h2 9v3h67l13-3 9-1h11l4 1v2l3-1 2 1 1-2 4 3h38l9-3h21l4 2v-2h5l4 2 10-1 5-1 3 1 6-1 1 1 11 1h25l31 1h9v2h-426z" fill="#BF941D"/>
<path transform="translate(241,640)" d="m0 0h6l5 6 16 28 3 6 1-39 1-1h6v51h-8l-17-28-5-10h-1v20l-1 18-5 1-2-7v-35z" fill="#A38E1A"/>
<path transform="translate(939,640)" d="m0 0h25l7 6 1 9-3 6 1 5 5 5 1 7-3 8-5 4-2 1-13 1h-13l-2-2v-49zm6 5v16l1 1h13l5-3 1-1v-8l-3-4-3-1zm1 22-1 1v18l1 1h11l9-3 2-3v-8l-4-5-7-1z" fill="#9A9726"/>
<path transform="translate(670,640)" d="m0 0h6l3 3 17 29 6 11-2-14v-28l1-1h6l1 5v46l-4 1-5-2-6-10-14-24-2-5-1 34-1 7h-5l-1-2v-37z" fill="#9C9927"/>
<path transform="translate(1416,631)" d="m0 0h3v7l-5 6 1 4 4 9v18l-5 10-6 5-4 2h-15l-6-3-5-6-4-10v-15l4-9 6-7 7-3h13l7 1 2-6zm-20 13-8 3-5 6-2 5v15l4 9 5 4 2 1h9l6-4 4-6 1-4v-16l-6-9-5-3z" fill="#9C9A26"/>
<path transform="translate(1137,640)" d="m0 0h22l8 4 5 6 3 7v17l-5 10-7 6-12 2h-12l-2-1-1-22-6-3 1-2 5-2v-19zm10 4-3 1v18l1 1 10 1v1l-9 1-2 1-1 13 2 6h7l10-4 4-5 2-5v-15l-4-8-5-4z" fill="#A28F1C"/>
<path transform="translate(1070,631)" d="m0 0 3 1-1 6-4 6 2 6 3 7v19l-4 8-8 7-4 1h-13l-8-4-6-9-2-8v-12l3-8 6-8 8-4h12l8 1 4-8zm-20 13-8 3-5 5-2 6v15l3 8 6 5 3 1h8l5-3 4-5 2-6v-17l-5-8-5-3z" fill="#A3901B"/>
<path transform="translate(465,640)" d="m0 0h6l6 9 14 24 4 7 1-39 1-1h5l1 40-1 11-5 1-5-5-9-15-10-18-2-4v41l-1 1h-5l-1-2v-49z" fill="#A48F1B"/>
<path transform="translate(1693,638)" d="m0 0h8l7 3 7 6 4 8 1 4v14l-3 8-7 8-7 3h-13l-8-4-6-9-2-15 2-10 4-8 7-6zm1 7-7 3-4 6-1 3v18l4 8 6 4h9l6-3 4-6 1-3v-19l-3-5-6-5-2-1z" fill="#A3901B"/>
<path transform="translate(330,639)" d="m0 0 6 2 9 16 10 16 3 7 1-40h5l1 1v50l-4 1-5-3-12-21-9-16-1 39-5 1-2-6v-21l1-24z" fill="#9C9A26"/>
<path transform="translate(1427,640)" d="m0 0h6l4 5 11 19 8 14 2 3-1-38 1-3h5l1 1v50l-5 1-4-4-8-13-12-21-1-4h-2l1 2v38l-2 2-4-1-1-38v-12z" fill="#A3901B"/>
<path transform="translate(771,640)" d="m0 0h5l1 21 23 1v-21l1-1h6l1 1v50l-4 1-3-1-1-23h-24v23l-3 1-4-2v-48z" fill="#A3911C"/>
<path transform="translate(527,639)" d="m0 0h12l7 3 2 3v3l-7-1-3-1h-10l-5 3-4 6-2 8v7l4 11 5 4 4 1h8l4-2 1-9v-3l-11-1v-6l2-1h13l3 3v18l-4 5-4 2h-18l-8-5-5-8-2-9 1-13 5-10 7-6z" fill="#9D9A26"/>
<path transform="translate(1369,630)" d="m0 0h5l1 5-5 5-3 4-1 15v10l-2 13-4 6-6 4-8 1-8-1-7-6-3-8v-37l1-1h5l1 1v21l1 17 1 5 5 2h10l5-6 1-4 1-34 1-2 6-2z" fill="#9B9926"/>
<path transform="translate(1490,639)" d="m0 0h12l6 3 3 4v2l-7-1-3-1h-11l-5 3-3 3-2 6v16l4 8 7 4h10l3-2 1-9v-3l-9-1-2-4 2-2 14-1 2 2v19l-5 6-3 1h-17l-8-5-4-5-3-7v-17l4-10 8-7z" fill="#A38F1B"/>
<path transform="translate(861,629)" d="m0 0 3 1v8l-4 3h-3l-1 37-3 7-8 7-12 1-8-3-5-6-2-7v-36l1-1h5l1 2v28l2 11 5 5h10l5-5 1-3 1-38 8-2z" fill="#9D9A27"/>
<path transform="translate(571,640)" d="m0 0h6l1 1v23l5-5 12-14 6-5h5v3l-9 9-5 7 2 5 15 25-1 3-6-1-6-9-9-15-3 1-5 7-1 16-5 1-2-1-1-50z" fill="#A48E1A"/>
<path transform="translate(1025,629)" d="m0 0 3 1-1 9-6 3-1 33-3 9-5 6-4 2-9 1-8-2-6-5-3-7-1-16v-22l1-1h5l1 1 1 34 3 9 4 2h10l5-5 1-5 1-35 8-3z" fill="#9C9A26"/>
<path transform="translate(1648,639)" d="m0 0h12l6 3 3 5v2l-7-1-4-2h-9l-4 3v8l5 2 14 6 5 4 2 4v8l-3 6-6 5-11 1-9-2-6-4v-5l12 4h11l4-5v-6l-8-5-12-6-5-5-1-3v-7l4-6z" fill="#9A8E20"/>
<path transform="translate(436,639)" d="m0 0h6l4 9 14 41-1 3-5-1-5-12-1-2-12-1h-7l-3 13-3 3-5-1 3-11 12-35zm2 8-6 19v5h15l-3-12-4-12z" fill="#9C9926"/>
<path transform="translate(291,639)" d="m0 0h11l18 1-1 5h-23v17h19l1 5-2 1h-18v19h24v4l-17 1h-13l-1-1v-51z" fill="#A08E1C"/>
<path transform="translate(631,640)" d="m0 0h31l-1 5h-23v17h19l2 4-3 2h-18l1 18 22 1 2 1v3l-5 1h-26l-1-1z" fill="#A48E19"/>
<path transform="translate(1183,640)" d="m0 0h30l1 4-1 1h-24l1 16 19 1 1 5-2 1h-19l1 17 1 1 22 1 2 4-31 1-1-1z" fill="#A2911C"/>
<path transform="translate(1095,639)" d="m0 0h11l8 4 1 5-7-1-3-1h-10l-6 4-3 7-1 5v8l3 10 6 5 2 1h9l7-3h4l-2 5-4 3-3 1h-14l-6-3-6-7-3-6v-19l5-10 7-6z" fill="#A48F1A"/>
<path transform="translate(882,639)" d="m0 0h10l7 3 2 2v4l-6-1-3-1h-10l-6 4-3 6-1 6v8l3 10 6 5 2 1h10l8-3 2 1-2 5-6 3h-15l-6-3-7-8-3-12 1-12 4-9 5-5z" fill="#9D9A26"/>
<path transform="translate(1270,304)" d="m0 0h1l1 172v51h-1l-2-41-1-8 1-13v-30l-1-6-1-32v-66l1-10v-8z" fill="#A58E19"/>
<path transform="translate(1762,568)" d="m0 0h1l1 9-1 1h-382v-1l77-1h301l2-1z" fill="#9D9B27"/>
<path transform="translate(384,640)" d="m0 0h38l1 2-2 3h-15v46l-1 1h-5l-1-1v-46h-15l-1-4z" fill="#A38F1A"/>
<path transform="translate(725,640)" d="m0 0h39v5h-16v46l-3 1-4-1v-46h-15z" fill="#A38E1B"/>
<path transform="translate(241,640)" d="m0 0h6l5 6 10 17v3h-3l-3-4-3-1-4-8h-1v20l-1 18-5 1-2-7v-35z" fill="#A3901C"/>
<path transform="translate(1284,640)" d="m0 0h39l-1 5-15 1v44l-3 2-4-1-1-45-14-1-2-4z" fill="#A28F1B"/>
<path transform="translate(1533,640)" d="m0 0h7l1 46 16 2 6 1h2l1-3h2l1 5-3 1h-29l-4-1-1-50z" fill="#8F8823"/>
<path transform="translate(1036,644)" d="m0 0 4 2-1 5-3 7v15l3 8 5 4 3 1h8l5-3 4-6 2 1 1 3 2 1-2 4-6 5-4 1h-13l-8-4-6-9-2-8v-12l3-8z" fill="#9E9B28"/>
<path transform="translate(359,640)" d="m0 0h5l1 1v50l-4 1-5-3-12-21 2-2 4 3 1-2 5 9 2 4z" fill="#A38E1A"/>
<path transform="translate(1609,640)" d="m0 0h6l1 1v50l-1 1h-6l-1-2v-49z" fill="#8B8221"/>
<path transform="translate(1458,640)" d="m0 0h5l1 1v50l-5 1-4-4-7-11 1-2 5-1 4 7-1-38z" fill="#A4901B"/>
<path transform="translate(801,640)" d="m0 0h6l1 1v50l-4 1-3-1-1-19 1-5h-7l1-4h6v-2l4 1v-3l-4-1-1-17z" fill="#A8941F"/>
<path transform="translate(1222,640)" d="m0 0h7l2 2v3h-3v46l-1 1h-5l-1-1v-50z" fill="#969124"/>
<path transform="translate(670,640)" d="m0 0h6l3 3 1 3h-5v-2h-2l4 4-1 37-1 7h-5l-1-2v-37z" fill="#9B9927"/>
<path transform="translate(1257,640)" d="m0 0h8l1 36v15l-5 1-2-1-1-46h-2z" fill="#9D9A26"/>
<path transform="translate(1416,631)" d="m0 0h3v7l-5 6 1 6-3 3-4-1-5-5-7-2-8 3-4 5-3 1-3-3 2-5 6-5 5-2h13l7 1 2-6z" fill="#8E8622"/>
<path transform="translate(939,640)" d="m0 0h6l1 21 7 1v5l-9 1v9l-2 2-1 7h-3v-45z" fill="#A4901B"/>
<path transform="translate(614,640)" d="m0 0h5l1 1v50l-5 1-1-1-1-50z" fill="#A68E19"/>
<path transform="translate(944,668)" d="m0 0h1l1 18h11l9-3 2-9 3-3 1-3 3 3 1 7-3 8-5 4-2 1-13 1h-13l-2-2 1-5h1l1-8h2z" fill="#9C9A26"/>
<path transform="translate(1666,667)" d="m0 0 4 4 1 2v8l-3 6-6 5-11 1-9-2-6-4v-5l12 4h11l4-5v-6l-6-4 4-3z" fill="#A3901C"/>
<path transform="translate(861,629)" d="m0 0 3 1v8l-4 3h-3l-1 30-2 3-4 1-1-1v-34l8-2z" fill="#9C9624"/>
<path transform="translate(1167,673)" d="m0 0 4 1 2-1 1 4-5 8-6 5-12 2h-12l-2-1v-13l2 3 1-2v-4h2l3 11h7l10-4 4-6z" fill="#9D9A26"/>
<path transform="translate(1369,630)" d="m0 0h5l1 5-5 5-3 4-1 15v10l-4 4-3-1v-30l1-2 6-2z" fill="#9D9B27"/>
<path transform="translate(1308,564)" d="m0 0h24l-4 1v2h-5-3l-6 1 2 6 4 1 4-1 4 1v2l15-1 1-2 14-2 2 4 21 1v1h-72l-1-1z" fill="#BF931D"/>
<path transform="translate(534,664)" d="m0 0h13l3 3v18l-4 5-4 2h-8v-3l6-1 3-7v-9l-11-1v-6z" fill="#9D9B27"/>
<path transform="translate(1693,638)" d="m0 0h8l7 3 7 6 4 8v5l-3-3v-2h-3l1 10-2 1-2-13-7-6-2-1h-7l-9 1v2l-2-1 4-8z" fill="#8D8522"/>
<path transform="translate(436,639)" d="m0 0h6l4 9 1 8-3 2-3-5-1-6h-2l-4 16-3 7-5 2v-7l8-22z" fill="#8F8722"/>
<path transform="translate(673,644)" d="m0 0h2v2h5l6 9 14 24-1 4-4 1-9-16-7-12-3-8-1 7h-1z" fill="#9F8D1C"/>
<path transform="translate(527,639)" d="m0 0h12l7 3 2 3v3l-7-1-3-1h-10l-5 3-6 9-2-4-3-2 4-6 8-6z" fill="#9C9926"/>
<path transform="translate(243,649)" d="m0 0 2 4 2 16v22l-5 1-2-7v-15l2-20z" fill="#BA931D"/>
<path transform="translate(1305,652)" d="m0 0h1l1 38-3 2-4-1v-34h3z" fill="#9D9B27"/>
<path transform="translate(1712,654)" d="m0 0 4 1 4 4v14l-3 8-3 4-9 2 6-12 1-9 1-1z" fill="#A28E1B"/>
<path transform="translate(295,668)" d="m0 0h1v19h24v4l-17 1h-13l-1-1v-10l3-3 1-4h2z" fill="#9C9926"/>
<path transform="translate(745,345)" d="m0 0h65l18 1v1l-15 1h-76l-3-2z" fill="#9F9723"/>
<path transform="translate(1503,664)" d="m0 0h7l2 2v19l-7 1-1-2 1-9v-3l-9-1-2-4 2-2z" fill="#8C8422"/>
<path transform="translate(1329,640)" d="m0 0h5l1 1v12l-1 22-4 1-1-2-1-16v-17z" fill="#A48E19"/>
<path transform="translate(631,644)" d="m0 0h1l1 43 2 1 1-3 1-16h1l1 17 22 1 2 1v3l-5 1h-26l-1-1z" fill="#9C9A27"/>
<path transform="translate(1570,666)" d="m0 0 6 1v4l8 1-1 3h-10l-2 11-2 4-1-4h-2l-1 4h-6l-2-1-10-1v-1h17l2-9z" fill="#A48E1A"/>
<path transform="translate(1270,539)" d="m0 0h1l1 37-1 1h-10l-7-1 8-4v-5h4l-1-3 4-15z" fill="#A48E19"/>
<path transform="translate(431,668)" d="m0 0 1 3 10 1-1 3-5 1h-7l-3 13-3 3-5-1 3-11 4-11 2 2 4-1z" fill="#988B1F"/>
<path transform="translate(741,646)" d="m0 0h1l1 18h3l1 2v10l1 4v11l-3 1-4-1z" fill="#A09C2C"/>
<path transform="translate(1434,646)" d="m0 0 5 2 12 21 2 5-4 2-4-4-11-20z" fill="#8D8522"/>
<path transform="translate(1608,660)" d="m0 0h1l1 8-1 7h2v-3h3l1-2 1 2v19l-1 1h-6l-1-2z" fill="#908822"/>
<path transform="translate(1264,667)" d="m0 0h1l1 9v15l-5 1-2-1v-23z" fill="#9D9B28"/>
<path transform="translate(512,653)" d="m0 0 4 1 1 9v12l-3 2-2 3-2-4-1-12 2-10z" fill="#A38F1A"/>
<path transform="translate(1713,620)" d="m0 0 2 1-2 4-6 8-2 3-5-1-3-1-9 2 1-4 6-5 7 1 4 2 1-5z" fill="#8F8823"/>
<path transform="translate(1636,682)" d="m0 0 12 4h11 3v2l3 1-3 3-11 1-9-2-6-4z" fill="#9A9726"/>
<path transform="translate(1112,683)" d="m0 0h4l-2 5-4 3-3 1h-14l-6-3 5-5 4 2h9z" fill="#9D9A28"/>
<path transform="translate(910,683)" d="m0 0 7 2 2 3-1 8-4 6-3 2h-3l1-4 2-2 1-6-3-1-1-6z" fill="#9D9B2B"/>
<path transform="translate(1533,640)" d="m0 0 6 1-1 7v26l-2 2-2-3-1-29-1-3z" fill="#9C9A26"/>
<path transform="translate(801,640)" d="m0 0h6l1 1v50l-4 1 2-2v-33l-3-2-2-3-1-11z" fill="#9A9425"/>
<path transform="translate(1654,639)" d="m0 0 9 1 5 4 1 5-7-1-4-2h-9l-7 4 1-3h2v-5z" fill="#8E8723"/>
<path transform="translate(945,640)" d="m0 0h19l7 6v6l-2-1-2-4-1 2-4-2-3-1-14-1-1-4z" fill="#9D9A26"/>
<path transform="translate(1432,652)" d="m0 0h1v38l-2 2-4-1v-19l4-2z" fill="#9D9B27"/>
<path transform="translate(1487,685)" d="m0 0 4 1h10l5-1h5l-2 4-5 3h-17l-7-4 3-2 3 1z" fill="#9D9B27"/>
<path transform="translate(981,641)" d="m0 0 4 1 2 1v24l-4 4-1-2z" fill="#A58E19"/>
<path transform="translate(1642,655)" d="m0 0h3v2l5 2 14 6 2 3-4 2h-7l-7-3v-4l-2-1 1-2h-3v-4z" fill="#8D8522"/>
<path transform="translate(336,647)" d="m0 0 4 1 10 17v4l-5-2h-2l-8-15z" fill="#8D8522"/>
<path transform="translate(800,658)" d="m0 0 5 1v3l-4-1v2h-6l-1 4h7l-1 4v-3h-23l3-1-2-5h22z" fill="#9C9A26"/>
<path transform="translate(1490,639)" d="m0 0h12l6 3 3 4v2l-7-1-13-2-2-2h2z" fill="#9C9A26"/>
<path transform="translate(273,640)" d="m0 0h6v51h-8l2-1 1-3h4v-19h-2l1-3v-17l-4-1-1-6z" fill="#9D9B27"/>
<path transform="translate(399,646)" d="m0 0h1v37l3-1 2-8h1v17l-1 1h-5l-1-1z" fill="#9D9B27"/>
<path transform="translate(1509,196)" d="m0 0h91v1l-61 1-17 1-2-1-11-1z" fill="#C0941D"/>
<path transform="translate(1704,685)" d="m0 0 1 2h2l1-2h5l-5 5-5 2h-13l-7-3v-1h10v-1z" fill="#9B9926"/>
<path transform="translate(1270,466)" d="m0 0h1l1 10v51h-1l-2-41-1-8 1-11z" fill="#A1941F"/>
<path transform="translate(359,640)" d="m0 0h5l1 1v50l-4 1-5-3-1-3h5l3-3v-40h-4z" fill="#9D9A26"/>
<path transform="translate(882,639)" d="m0 0h10l7 3 2 2v4l-6-1-13-3v-4z" fill="#9C9A26"/>
<path transform="translate(1360,643)" d="m0 0 3 1 1 5v23l-2 1-2-1z" fill="#A58E19"/>
<path transform="translate(879,640)" d="m0 0h5v4l-4 3-5 5-3 2-4-1 1-5 5-5z" fill="#A38F1A"/>
<path transform="translate(802,651)" d="m0 0 2 4 3 2v11l-5 1-1 3v-5h-7l1-4h6v-2l4 1v-3l-4-1v-6z" fill="#A48E19"/>
<path transform="translate(436,639)" d="m0 0h6l4 9 1 8-3 2-3-5-1-6h-2z" fill="#A08F1C"/>
<path transform="translate(645,627)" d="m0 0 6 1 5 4v4l-6-1-4-2-5 3-4-1 4-6z" fill="#8D8622"/>
<path transform="translate(601,640)" d="m0 0h5v3l-12 12-5-2 4-6z" fill="#9D9A26"/>
<path transform="translate(1191,662)" d="m0 0h18l1 5-2 1-18-1z" fill="#9A9626"/>
<path transform="translate(297,662)" d="m0 0h18l1 5-2 1h-18l3-1v-2l2-1z" fill="#9C9A26"/>
<path transform="translate(302,627)" d="m0 0h6l6 7-1 2-6-1v-2l-5 1-3 2-4-1 2-4z" fill="#908823"/>
<path transform="translate(1329,459)" d="m0 0 8 1 5 2 21 2v1h-35l-2-2 1-2h2z" fill="#A2921E"/>
<path transform="translate(686,666)" d="m0 0 4 1 6 5 4 8-1 3-4 1-9-16z" fill="#A48F1A"/>
<path transform="translate(900,683)" d="m0 0 3 1-2 5-6 3h-12v-2h2l1-3 9-2z" fill="#A8901B"/>
<path transform="translate(1567,675)" d="m0 0 5 5-2 10-2-4h-2l-1 4h-6l-2-1-10-1v-1h17l2-9z" fill="#9D9B27"/>
<path transform="translate(639,662)" d="m0 0h18l2 4-3 2-16-1z" fill="#9F9D2B"/>
<path transform="translate(1197,627)" d="m0 0 6 1 5 5v3l-5-1-5-3h-2v2l-4 2-4-1 5-6z" fill="#8E8622"/>
<path transform="translate(1095,639)" d="m0 0h11l8 4 1 5-7-1-11-6z" fill="#989123"/>
<path transform="translate(1193,687)" d="m0 0h20l2 4h-24v-3z" fill="#8D8622"/>
<path transform="translate(472,263)" d="m0 0 3 3 4 11-1 2h-9z" fill="#A4901B"/>
<path transform="translate(534,664)" d="m0 0h13v2l-3 1 1 2h-2v2h-11v-6z" fill="#8E8622"/>
<path transform="translate(1191,640)" d="m0 0h22l-1 4h-21z" fill="#8B8222"/>
<path transform="translate(1184,674)" d="m0 0 5 5 2 7 2 2v2l-3 2h-6v-10l1-3z" fill="#A48F1A"/>
<path transform="translate(330,639)" d="m0 0 6 2 2 6-3 3-1 10h-1l-1-11-2-1-2 2v-9z" fill="#9D9825"/>
<path transform="translate(189,196)" d="m0 0h41l-3 2-37 1-2-2z" fill="#959024"/>
<path transform="translate(1609,640)" d="m0 0h6l1 1v10l-7 2-1-12z" fill="#9E9021"/>
<path transform="translate(434,623)" d="m0 0 9 1 3 4-2 6-1 1h-5v-3-4l-4-3z" fill="#948F24"/>
<path transform="translate(465,676)" d="m0 0 2 3 2-1 2 3v10l-1 1h-5l-1-7z" fill="#A09825"/>
<path transform="translate(1222,640)" d="m0 0h7l2 2v3h-3l-1 5h-1l-1-5-2 1-1 23h-1v-28z" fill="#9B9826"/>
<path transform="translate(427,679)" d="m0 0 1 3-3 9-6 1-1-3 3-9h3z" fill="#9C9926"/>
<path transform="translate(1685,641)" d="m0 0 1 3-2 4 1-1 3 1-6 9-3-1-2-4 4-7z" fill="#9E901F"/>
<path transform="translate(1683,678)" d="m0 0 4 5 7 5-3 1-9-1-4-5 1-2 2 1z" fill="#9F8D1C"/>
<path transform="translate(547,665)" d="m0 0h2v10l-2 4-3 1-1-8-4-1h4l1-5z" fill="#A48F1A"/>
<path transform="translate(571,640)" d="m0 0h6l1 1v14l-4-4h-2v-6l-2-4z" fill="#9F9A26"/>
<path transform="translate(1369,630)" d="m0 0h5l1 5-5 5-2 3h-3l1-5z" fill="#928C24"/>
<path transform="translate(861,629)" d="m0 0 3 1v8l-4 3h-3l-1 3v-3h-2v2h-2l2-4 3-1z" fill="#9B9826"/>
<path transform="translate(577,673)" d="m0 0 2 2-1 16-5 1-2-1v-6l4-2z" fill="#9D9A26"/>
<path transform="translate(1260,648)" d="m0 0 4 8v9l-1 3-3 1-1-1v-10z" fill="#8B8222"/>
<path transform="translate(1608,678)" d="m0 0h1l2 7 3-3 2 2v7l-1 1h-6l-1-2z" fill="#9B8E1F"/>
<path transform="translate(1660,685)" d="m0 0 2 1v2l3 1-3 3-11 1-6-1 1-2h6l5-1-7-1v-1l9-1z" fill="#9D9A26"/>
<path transform="translate(179,568)" d="m0 0 2 1 3 2 9 2 4 3h-16l-1-3-2-1z" fill="#A58E19"/>
<path transform="translate(850,651)" d="m0 0h1l1 12 3-1v10l-1 2-4 1z" fill="#A58E19"/>
<path transform="translate(962,663)" d="m0 0 5 1 4 3 1 4-2 5-4-5-2-4h-3z" fill="#A48F1A"/>
<path transform="translate(1574,654)" d="m0 0 5 3-2 10-6-1 2-9z" fill="#9C9926"/>
<path transform="translate(329,646)" d="m0 0 4 2 1 15-1-2-4-1-1-1v-9z" fill="#8B8222"/>
<path transform="translate(964,641)" d="m0 0 4 2 3 3v6l-2-1-2-4-1 2-8-4v-2z" fill="#A48F1A"/>
<path transform="translate(451,681)" d="m0 0 7 2 2 8-4 1-3-2z" fill="#A7901C"/>
<path transform="translate(1729,683)" d="m0 0 4 2 1 1v5l-1 1-7-1-1-3z" fill="#9D9B27"/>
<path transform="translate(1226,650)" d="m0 0 2 2v15l-3 3-1-15z" fill="#8D8522"/>
<path transform="translate(1225,644)" d="m0 0h1v10l-1 1v13l-2 2-1-24z" fill="#A18C1A"/>
<path transform="translate(619,649)" d="m0 0h1v42l-5 1-1-4 3 1 2 1z" fill="#9C9926"/>
<path transform="translate(1503,640)" d="m0 0 5 2 3 4v2l-7-1-5-2z" fill="#938E24"/>
<path transform="translate(465,640)" d="m0 0h6l3 5-6-1-2-1v10l-1 5h-1v-17z" fill="#979125"/>
<path transform="translate(687,658)" d="m0 0 4 5 4 7-1 2-5-5h-4l-2-5h2z" fill="#9D9A26"/>
<path transform="translate(1054,627)" d="m0 0 5 1-3 5-3 3h-5l1-4 3-1z" fill="#9E9A29"/>
<path transform="translate(1427,656)" d="m0 0 2 2-1 3 4 1v8l-5 2z" fill="#A58E19"/>
<path transform="translate(525,686)" d="m0 0h16l-1 3-6 1v2h-4v-2l-4-2z" fill="#A3901B"/>
<path transform="translate(1639,654)" d="m0 0 4 1 1 5h3l1 6-5-2-3-2z" fill="#A38E1A"/>
<path transform="translate(725,640)" d="m0 0h11l-2 3 5 1v1h-13z" fill="#9B9926"/>
<path transform="translate(1197,701)" d="m0 0h5l2 5-2 2h-5l-2-2 1-4z" fill="#9C982E"/>
<path transform="translate(1463,682)" d="m0 0h1v9l-5 1-3-2 1-3z" fill="#9A9726"/>
<path transform="translate(1191,663)" d="m0 0h13v2l-4 2h-10z" fill="#8B8222"/>
<path transform="translate(892,641)" d="m0 0 7 1 2 2v4l-6-1-4-2z" fill="#979023"/>
<path transform="translate(659,640)" d="m0 0h3l-1 5h-23v9l-2-4 1-6 22-1z" fill="#9D9B27"/>
<path transform="translate(754,640)" d="m0 0h10v5h-14v-1l6-1z" fill="#9C9825"/>
<path transform="translate(842,627)" d="m0 0h3l-1 4-4 4h-6l2-4z" fill="#A39E2F"/>
<path transform="translate(1427,640)" d="m0 0h6l4 5v2h-2l-1 3h-2l-1-7h-3z" fill="#9D9A26"/>
<path transform="translate(328,659)" d="m0 0 5 2 1 3-2 5-4 1z" fill="#A58E19"/>
<path transform="translate(273,640)" d="m0 0h6v5l-3 2h-3l-1-6z" fill="#979224"/>
<path transform="translate(1645,686)" d="m0 0 12 2 1 2-10 1-4-1-1-3z" fill="#A48E1A"/>
<path transform="translate(255,654)" d="m0 0 4 4 3 5v3h-3l-4-5z" fill="#8D8522"/>
<path transform="translate(982,640)" d="m0 0h5l1 1v26h-1v-24l-4-1z" fill="#9D9B27"/>
<path transform="translate(523,684)" d="m0 0 3 2 4 4v2h-6l-4-2 1-3 1-1z" fill="#9D9A26"/>
<path transform="translate(514,682)" d="m0 0 9 1 1 5-5 1-5-5z" fill="#A38F1A"/>
<path transform="translate(384,640)" d="m0 0h6v4h6v1h-12l-1-4z" fill="#A19823"/>
<path transform="translate(598,683)" d="m0 0 2 1v2l8 2v4l-6-1-4-6z" fill="#B5951F"/>
<path transform="translate(900,683)" d="m0 0 3 1-2 5-6 3h-2v-2l3-2 1-4z" fill="#A19623"/>
<path transform="translate(1614,670)" d="m0 0 2 2v7l-7-2v-2h2v-3h3z" fill="#A38F1A"/>
<path transform="translate(1329,640)" d="m0 0h5l1 1v12h-1v-7h-2v-2l-4-1z" fill="#9D9B27"/>
<path transform="translate(1183,662)" d="m0 0h1l1 16 1 2-1 7-2 4z" fill="#9D9B27"/>
<path transform="translate(1095,639)" d="m0 0h11l3 2-4 2-7-1z" fill="#9E9824"/>
<path transform="translate(1431,651)" d="m0 0h1v11l-2 1v-2h-2l-1-6 3-1-1-2z" fill="#8B8221"/>
<path transform="translate(772,682)" d="m0 0 4 1v8h-4z" fill="#9D9A26"/>
<path transform="translate(1679,453)" d="m0 0 2 3 1 4-1 3-4 1-1-2z" fill="#A3921D"/>
<path transform="translate(436,639)" d="m0 0h6l1 4-2 1-1 3h-2z" fill="#999324"/>
<path transform="translate(1284,640)" d="m0 0 3 1v2l6-1v1l6 1v1h-14l-2-4z" fill="#9B9826"/>
<path transform="translate(441,648)" d="m0 0 2 1 1 3h3l-1 5h-3l-2-4z" fill="#8F8521"/>
<path transform="translate(1640,648)" d="m0 0 4 1v6l-6-1z" fill="#9D9825"/>
<path transform="translate(964,641)" d="m0 0 3 1-1 3-4 2-4-2v-2z" fill="#A2921D"/>
<path transform="translate(662,621)" d="m0 0 1 4-6 5-1-3 4-5z" fill="#CCCB92"/>
<path transform="translate(602,681)" d="m0 0 3 1 3 6h-5l-3-3z" fill="#9C9A26"/>
<path transform="translate(1070,631)" d="m0 0 3 1-1 6-2 2-2-3 1-5z" fill="#9D9B27"/>
<path transform="translate(645,627)" d="m0 0 6 1v1l-7 1-4 2 1 4-4-1 4-6z" fill="#9F9925"/>
<path transform="translate(309,622)" d="m0 0 5 1 4 5-1 2-8-6z" fill="#979325"/>
<path transform="translate(1683,688)" d="m0 0h8l5 3v1l-9-1z" fill="#9D9B27"/>
<path transform="translate(614,640)" d="m0 0h5l-1 3h-2l-1 8h-1l-1-10z" fill="#B7951F"/>
<path transform="translate(1207,687)" d="m0 0h6l2 4h-10l3-2z" fill="#9D9B27"/>
<path transform="translate(1683,678)" d="m0 0 3 3-1 2-5 3-2-5 3 1z" fill="#9D9B27"/>
</svg>
