<svg xmlns="http://www.w3.org/2000/svg" xmlns:xlink="http://www.w3.org/1999/xlink" width="500" zoomAndPan="magnify" viewBox="0 0 375 374.999991" height="500" preserveAspectRatio="xMidYMid meet" version="1.0"><defs><g/></defs><g fill="#ffeb80" fill-opacity="1"><g transform="translate(17.195393, 258.521424)"><g><path d="M 47.375 0.359375 L 41.75 0.1875 L 36.484375 -1.640625 L 34.125 -5.625 L 34.484375 -9.078125 L 34.671875 -19.609375 L 34.296875 -23.40625 L 34.484375 -38.109375 L 34.84375 -41.75 L 34.296875 -68.78125 L 34.671875 -73.875 L 34.484375 -77.5 L 34.671875 -81.5 L 34.296875 -86.578125 L 34.671875 -92.390625 L 32.671875 -96.015625 L 29.21875 -97.828125 L 11.984375 -98.1875 L 8.34375 -97.828125 L 5.078125 -99.640625 L 3.453125 -102.90625 L 3.078125 -108.53125 L 3.453125 -117.609375 L 3.265625 -121.234375 L 5.4375 -125.421875 L 8.890625 -127.234375 L 21.59375 -126.5 L 27.21875 -127.046875 L 37.9375 -126.5 L 41.203125 -127.234375 L 45.1875 -126.875 L 49 -127.40625 L 52.453125 -127.234375 L 56.078125 -126.5 L 70.78125 -127.234375 L 74.234375 -126.875 L 78.046875 -127.40625 L 81.5 -127.046875 L 92.75 -127.046875 L 96.1875 -124.6875 L 98.1875 -121.0625 L 98.015625 -103.8125 L 95.828125 -99.828125 L 92.75 -97.828125 L 89.484375 -98.015625 L 85.671875 -97.46875 L 78.953125 -98.375 L 71.875 -98.015625 L 68.421875 -95.828125 L 66.96875 -90.390625 L 66.421875 -74.59375 L 66.96875 -70.78125 L 66.609375 -41.5625 L 67.15625 -37.578125 L 66.796875 -34.296875 L 66.96875 -27.046875 L 66.609375 -23.234375 L 67.15625 -16.328125 L 66.609375 -6.890625 L 64.796875 -1.8125 L 59.53125 0 Z M 51.359375 12.34375 L 47.734375 10.703125 L 48.09375 6.890625 L 51.734375 5.078125 L 54.8125 4.53125 L 65.890625 5.078125 L 69.515625 3.265625 L 71.140625 -1.09375 L 71.6875 -4.359375 L 71.140625 -15.421875 L 71.515625 -19.0625 L 70.96875 -31.765625 L 71.515625 -37.578125 L 71.140625 -40.46875 L 71.328125 -88.203125 L 73.328125 -91.109375 L 76.40625 -93.46875 L 81.125 -92.921875 L 90.03125 -92.921875 L 94.015625 -93.65625 L 96.921875 -93.296875 L 100.734375 -95.109375 L 102.1875 -100.734375 L 102.546875 -104 L 102.359375 -109.8125 L 104 -113.25 L 108.171875 -113.078125 L 109.4375 -109.8125 L 109.265625 -106 L 109.984375 -98.546875 L 109.625 -91.296875 L 108 -87.671875 L 104.71875 -86.03125 L 94.375 -85.671875 L 90.5625 -86.03125 L 83.859375 -85.84375 L 79.859375 -84.03125 L 78.59375 -80.59375 L 78.21875 -56.8125 L 78.953125 -48.09375 L 78.40625 -44.828125 L 78.40625 -18.6875 L 78.765625 -15.25 L 78.40625 6.359375 L 76.953125 10.15625 L 73.328125 12.15625 L 65.890625 11.796875 L 62.625 12.15625 Z M 16.703125 -91.296875 L 20.328125 -93.296875 L 26.140625 -93.828125 L 29.765625 -91.84375 L 29.765625 -88.03125 L 25.953125 -86.21875 L 20.328125 -86.21875 L 16.328125 -88.03125 Z M 16.703125 -91.296875 "/></g></g></g><g fill="#ffeb80" fill-opacity="1"><g transform="translate(118.653932, 258.521424)"><g><path d="M 13.25 -5.078125 L 13.796875 -19.96875 L 13.25 -23.234375 L 13.25 -77.5 L 13.609375 -81.125 L 13.4375 -85.484375 L 13.796875 -92.390625 L 13.0625 -99.828125 L 13.4375 -103.453125 L 13.0625 -117.609375 L 13.4375 -121.609375 L 15.25 -125.234375 L 19.234375 -127.046875 L 37.203125 -126.6875 L 41.203125 -127.046875 L 45.015625 -125.046875 L 46.640625 -121.609375 L 47.015625 -114.890625 L 46.640625 -110.890625 L 46.46875 -96.734375 L 46.640625 -93.46875 L 46.640625 -89.65625 L 46.828125 -85.671875 L 48.640625 -82.21875 L 52.09375 -80.59375 L 62.796875 -80.40625 L 66.0625 -80.765625 L 69.875 -80.40625 L 76.953125 -81.125 L 80.40625 -80.59375 L 84.03125 -82.578125 L 86.03125 -86.21875 L 86.21875 -100.375 L 85.671875 -103.8125 L 86.03125 -111.265625 L 85.671875 -114.34375 L 85.84375 -121.234375 L 87.671875 -125.59375 L 92.921875 -126.875 L 113.796875 -126.6875 L 117.4375 -125.234375 L 119.0625 -121.421875 L 118.875 -30.3125 L 119.421875 -27.40625 L 118.875 -21.59375 L 119.25 -5.078125 L 117.0625 -2 L 113.625 0.359375 L 106.171875 -0.1875 L 102.546875 0.1875 L 93.109375 0.1875 L 87.84375 -2.171875 L 85.84375 -5.078125 L 85.671875 -45.1875 L 83.859375 -48.640625 L 80.40625 -50.640625 L 77.140625 -50.640625 L 73.328125 -51.1875 L 51.90625 -51 L 48.09375 -48.640625 L 46.46875 -44.828125 L 46.46875 -12.703125 L 46.828125 -8.71875 L 46.46875 -5.265625 L 45.015625 -1.8125 L 41.203125 0.359375 L 33.578125 0.1875 L 29.765625 0.546875 L 22.5 0.1875 L 18.875 0.359375 L 15.421875 -1.640625 Z M 50.8125 -90.5625 L 51.359375 -94.5625 L 50.8125 -104.1875 L 51.1875 -109.625 L 53 -113.625 L 56.453125 -112.890625 L 58.265625 -109.8125 L 58.625 -105.453125 L 58.4375 -102 L 58.625 -98.546875 L 58.4375 -91.109375 L 56.625 -87.671875 L 52.8125 -87.671875 Z M 99.640625 6.53125 L 103.453125 4.359375 L 107.265625 4.53125 L 110.890625 4.171875 L 117.796875 4.71875 L 121.96875 2.71875 L 123.59375 -1.09375 L 123.421875 -4.53125 L 123.96875 -8.53125 L 123.59375 -11.984375 L 123.96875 -26.3125 L 123.59375 -29.765625 L 123.421875 -70.234375 L 123.96875 -73.328125 L 123.59375 -76.78125 L 123.59375 -109.984375 L 125.234375 -113.25 L 129.234375 -113.078125 L 130.859375 -109.8125 L 130.859375 -106.359375 L 131.21875 -102.734375 L 130.859375 -99.09375 L 131.046875 -70.0625 L 130.6875 -66.0625 L 131.046875 -18.875 L 130.6875 -15.25 L 130.6875 -8.34375 L 131.21875 -4.90625 L 130.6875 -0.71875 L 130.6875 4.71875 L 129.234375 9.984375 L 125.59375 11.984375 L 121.78125 12.15625 L 114.53125 11.25 L 103.28125 11.984375 L 99.09375 10.15625 Z M 27.046875 6.171875 L 30.671875 4.71875 L 34.125 4.359375 L 37.9375 4.71875 L 41.921875 4.71875 L 45.5625 4.359375 L 49.546875 2.546875 L 51.1875 -0.71875 L 51 -26.859375 L 51.359375 -29.953125 L 51 -39.203125 L 52.8125 -44.828125 L 56.8125 -46.828125 L 60.796875 -47.015625 L 64.0625 -46.46875 L 67.875 -46.828125 L 75.859375 -46.46875 L 79.671875 -44.828125 L 79.3125 -41.015625 L 75.5 -38.84375 L 69.875 -39.015625 L 65.890625 -38.65625 L 60.265625 -37.390625 L 58.265625 -33.765625 L 58.8125 -29.578125 L 58.4375 -26.140625 L 58.8125 -8.171875 L 58.265625 -0.90625 L 58.4375 4.53125 L 56.8125 10.34375 L 52.8125 11.796875 L 49.1875 11.4375 L 45.1875 11.796875 L 41.921875 11.4375 L 32.3125 11.4375 L 27.21875 9.984375 Z M 27.046875 6.171875 "/></g></g></g><g fill="#ffeb80" fill-opacity="1"><g transform="translate(251.511969, 258.521424)"><g><path d="M 62.4375 1.640625 L 58.984375 1.09375 L 55 -0.359375 L 51.359375 -3.453125 L 49.734375 -6.171875 L 42.46875 -23.40625 L 41.5625 -27.046875 L 39.5625 -30.3125 L 36.484375 -36.484375 L 35.21875 -40.296875 L 30.671875 -49.734375 L 29.578125 -53.359375 L 13.25 -90.03125 L 11.984375 -93.828125 L 9.984375 -96.5625 L 8.53125 -100.1875 L 7.625 -103.640625 L 5.8125 -106.359375 L 0 -121.78125 L 1.453125 -125.421875 L 4.359375 -126.6875 L 11.25 -126.6875 L 14.890625 -127.234375 L 25.234375 -126.875 L 29.40625 -125.046875 L 32.484375 -121.96875 L 37.578125 -108.171875 L 42.296875 -98.546875 L 51.359375 -74.953125 L 54.453125 -68.78125 L 55.171875 -65.34375 L 59.71875 -55.53125 L 61.703125 -55.171875 L 63.53125 -58.4375 L 67.15625 -68.609375 L 68.96875 -71.875 L 69.703125 -75.140625 L 71.328125 -78.21875 L 72.421875 -82.03125 L 89.296875 -121.96875 L 92.390625 -125.046875 L 96.375 -127.40625 L 103.28125 -126.6875 L 106.90625 -126.875 L 110.359375 -127.234375 L 113.625 -126.6875 L 117.4375 -126.328125 L 120.703125 -125.59375 L 121.609375 -121.78125 L 120.328125 -116.890625 L 116.890625 -110.53125 L 115.984375 -107.078125 L 112.890625 -100.546875 L 111.078125 -97.28125 L 95.28125 -59.890625 L 92.015625 -54.09375 L 90.75 -50.09375 L 83.671875 -33.578125 L 81.671875 -30.3125 L 80.59375 -27.21875 L 78.765625 -23.40625 L 77.6875 -19.78125 L 74.234375 -13.96875 L 73.140625 -10.15625 L 70.78125 -5.078125 L 66.796875 0.1875 Z M 70.234375 13.4375 L 65.34375 11.984375 L 63.34375 7.984375 L 66.25 5.8125 L 70.234375 4.171875 L 73.6875 0.90625 L 75.328125 -1.8125 L 83.859375 -22.328125 L 85.671875 -25.40625 L 89.484375 -35.75 L 92.921875 -41.921875 L 111.625 -85.484375 L 113.25 -88.203125 L 114.890625 -91.65625 L 115.984375 -95.28125 L 120.875 -104.90625 L 121.96875 -108.71875 L 123.421875 -112.34375 L 126.5 -115.609375 L 130.3125 -115.984375 L 130.859375 -111.4375 L 129.40625 -106.90625 L 127.59375 -103.8125 L 126.328125 -100 L 124.6875 -97.28125 L 123.59375 -93.828125 L 104.71875 -50.640625 L 102.734375 -48.09375 L 101.640625 -44.65625 L 84.21875 -4.53125 L 82.40625 -1.640625 L 79.859375 5.625 L 78.21875 8.53125 L 74.953125 11.984375 Z M 60.796875 -68.609375 L 58.4375 -70.421875 L 56.8125 -73.6875 L 55.53125 -77.5 L 54.09375 -80.765625 L 53.171875 -84.21875 L 51.359375 -87.84375 L 50.453125 -91.109375 L 47.015625 -98.015625 L 46.09375 -102 L 44.828125 -104.90625 L 43.203125 -108.53125 L 41.921875 -111.984375 L 42.46875 -115.25 L 46.28125 -114.890625 L 49.734375 -111.265625 L 62.625 -80.40625 L 63.34375 -74.953125 L 62.796875 -70.234375 Z M 60.796875 -68.609375 "/></g></g></g><path stroke-linecap="butt" transform="matrix(0.75, 0, 0, 0.75, -194.591659, 96.749994)" fill="none" stroke-linejoin="miter" d="M 334.846192 205.47398 L 327.340983 205.234397 L 320.309733 202.812522 L 317.179524 197.494813 L 317.653482 192.890646 L 317.887858 178.885437 L 317.419107 173.802103 L 317.653482 154.187519 L 318.127441 149.343768 L 317.419107 113.302099 L 317.887858 106.510432 L 317.653482 101.666682 L 317.887858 96.348973 L 317.419107 89.552098 L 317.887858 81.812514 L 315.231607 76.968764 L 310.622232 74.546888 L 287.637856 74.07293 L 282.794105 74.546888 L 278.481605 72.125013 L 276.294105 67.812513 L 275.825355 60.307304 L 276.294105 48.197928 L 276.05973 43.34897 L 278.955563 37.796886 L 283.564939 35.375011 L 300.460773 36.322928 L 307.965982 35.609386 L 322.262858 36.322928 L 326.63265 35.375011 L 331.950358 35.848969 L 337.033692 35.140636 L 341.643067 35.375011 L 346.486818 36.322928 L 366.038902 35.375011 L 370.648278 35.848969 L 375.731611 35.140636 L 380.340987 35.609386 L 395.346196 35.609386 L 399.955571 38.744803 L 402.611821 43.588553 L 402.377446 66.57293 L 399.481613 71.890638 L 395.346196 74.546888 L 390.976404 74.312513 L 385.89307 75.020847 L 376.971195 73.838555 L 367.518069 74.312513 L 362.908694 77.203139 L 360.960777 84.473972 L 360.252444 105.562515 L 360.960777 110.645849 L 360.486819 149.583352 L 361.257652 154.895852 L 360.726402 159.270852 L 360.960777 168.958353 L 360.486819 174.041687 L 361.257652 183.197937 L 360.486819 195.781271 L 358.064943 202.578147 L 351.033693 205.000022 Z M 340.163901 221.484398 L 335.32015 219.296898 L 335.7889 214.218773 L 340.637859 211.796897 L 344.773276 211.026064 L 359.54411 211.796897 L 364.387861 209.369814 L 366.575361 203.520855 L 367.283694 199.208355 L 366.575361 184.437521 L 367.044111 179.59377 L 366.335777 162.640644 L 367.044111 154.895852 L 366.575361 151.05731 L 366.809736 87.369806 L 369.465986 83.526056 L 373.544111 80.395847 L 379.867028 81.10418 L 391.742029 81.10418 L 397.059738 80.098972 L 400.89828 80.630222 L 405.981613 78.208347 L 407.92953 70.708346 L 408.403488 66.333346 L 408.169113 58.593762 L 410.351405 53.984387 L 415.908697 54.22397 L 417.622239 58.593762 L 417.382656 63.677096 L 418.330572 73.598972 L 417.856614 83.291681 L 415.669114 88.135431 L 411.299322 90.260431 L 397.533696 90.796889 L 392.450362 90.260431 L 383.471195 90.557306 L 378.153486 92.979181 L 376.497236 97.531265 L 375.965986 129.255225 L 376.971195 140.895851 L 376.20557 145.208351 L 376.20557 180.067729 L 376.73682 184.677104 L 376.20557 213.447939 L 374.314945 218.531273 L 369.465986 221.187523 L 359.54411 220.713565 L 355.16911 221.187523 Z M 293.960773 83.291681 L 298.804523 80.630222 L 306.544107 79.864597 L 311.393065 82.520847 L 311.393065 87.604181 L 306.309732 90.026056 L 298.804523 90.026056 L 293.486814 87.604181 Z M 424.632656 198.203146 L 425.34099 178.354187 L 424.632656 174.041687 L 424.632656 101.666682 L 425.101406 96.822931 L 424.867031 91.031264 L 425.34099 81.812514 L 424.393073 71.890638 L 424.867031 67.04168 L 424.393073 48.197928 L 424.867031 42.88022 L 427.288906 38.036469 L 432.606615 35.609386 L 456.5962 36.083344 L 461.913909 35.609386 L 466.992034 38.270844 L 469.179534 42.88022 L 469.653492 51.802095 L 469.179534 57.119804 L 468.945159 76.026055 L 469.179534 80.395847 L 469.179534 85.479181 L 469.413909 90.796889 L 471.835784 95.401056 L 476.44516 97.531265 L 490.684744 97.76564 L 495.054536 97.291682 L 500.137869 97.76564 L 509.590995 96.822931 L 514.20037 97.531265 L 518.986829 94.869806 L 521.700371 90.026056 L 521.939954 71.177096 L 521.169121 66.57293 L 521.700371 56.645846 L 521.169121 52.56772 L 521.408704 43.34897 L 523.830579 37.562511 L 530.86183 35.848969 L 558.689957 36.083344 L 563.533707 38.036469 L 565.721207 43.114595 L 565.481624 164.588561 L 566.189957 168.489603 L 565.481624 176.229187 L 565.955582 198.203146 L 563.059749 202.343772 L 558.450373 205.47398 L 548.528498 204.765647 L 543.679539 205.234397 L 531.096205 205.234397 L 524.064954 202.104188 L 521.408704 198.203146 L 521.169121 144.734393 L 518.747246 140.130226 L 514.20037 137.468767 L 509.82537 137.468767 L 504.747245 136.760434 L 476.148285 136.994809 L 471.070159 140.130226 L 468.945159 145.208351 L 468.945159 188.041687 L 469.413909 193.359396 L 468.945159 197.968771 L 466.992034 202.578147 L 461.913909 205.47398 L 451.747241 205.234397 L 446.669116 205.708355 L 436.981615 205.234397 L 432.132657 205.47398 L 427.52849 202.812522 Z M 474.731618 84.234389 L 475.439951 78.91668 L 474.731618 66.098971 L 475.205576 58.833346 L 477.627451 53.515637 L 482.236827 54.458345 L 484.658702 58.593762 L 485.13266 64.385429 L 484.893077 68.994805 L 485.13266 73.598972 L 484.893077 83.526056 L 482.471202 88.135431 L 477.393076 88.135431 Z M 539.840997 213.687523 L 544.924331 210.791689 L 550.002456 211.026064 L 554.846206 210.552106 L 564.007665 211.260439 L 569.617041 208.604189 L 571.747249 203.520855 L 571.507666 198.97398 L 572.278499 193.59898 L 571.747249 189.046896 L 572.278499 169.90627 L 571.747249 165.296894 L 571.507666 111.354182 L 572.278499 107.218766 L 571.747249 102.60939 L 571.747249 58.359387 L 573.929541 53.984387 L 579.24725 54.22397 L 581.43475 58.593762 L 581.43475 63.203138 L 581.908708 68.046888 L 581.43475 72.890638 L 581.669125 111.593766 L 581.200375 116.906266 L 581.669125 179.833354 L 581.200375 184.677104 L 581.200375 193.890646 L 581.908708 198.44273 L 581.200375 204.052105 L 581.200375 211.260439 L 579.24725 218.291689 L 574.403499 220.953148 L 569.325374 221.187523 L 559.695165 220.005231 L 544.684747 220.953148 L 539.075372 218.531273 Z M 443.007657 213.213564 L 447.851408 211.260439 L 452.460783 210.791689 L 457.538908 211.260439 L 462.856617 211.260439 L 467.700367 210.791689 L 473.018076 208.369814 L 475.205576 204.052105 L 474.971201 169.197936 L 475.439951 165.062519 L 474.971201 152.71356 L 477.393076 145.208351 L 482.710785 142.552101 L 488.028494 142.312518 L 492.398286 143.020851 L 497.481619 142.552101 L 508.111828 143.020851 L 513.195162 145.208351 L 512.721204 150.291685 L 507.643078 153.187519 L 500.137869 152.947935 L 494.820161 153.479185 L 487.314952 155.135435 L 484.658702 159.979186 L 485.367035 165.531269 L 484.893077 170.140645 L 485.367035 194.13023 L 484.658702 203.81773 L 484.893077 211.026064 L 482.710785 218.765648 L 477.393076 220.713565 L 472.544118 220.244815 L 467.231617 220.713565 L 462.856617 220.244815 L 450.038908 220.244815 L 443.242032 218.291689 Z M 667.35663 207.187522 L 662.747255 206.479189 L 657.429546 204.526064 L 652.585796 200.390647 L 650.398296 196.78648 L 640.710795 173.802103 L 639.528504 168.958353 L 636.872253 164.588561 L 632.731628 156.375019 L 631.080586 151.296893 L 624.992044 138.708351 L 623.575378 133.864601 L 601.773293 84.942722 L 600.059751 79.864597 L 597.403501 76.26043 L 595.512876 71.41668 L 594.273292 66.807305 L 591.851417 63.203138 L 584.111833 42.640636 L 586.05975 37.796886 L 589.898292 36.083344 L 599.117043 36.083344 L 603.960793 35.375011 L 617.726419 35.848969 L 623.341003 38.270844 L 627.419128 42.34897 L 634.210795 60.781262 L 640.47642 73.598972 L 652.585796 105.031265 L 656.721213 113.302099 L 657.66913 117.854183 L 663.752464 130.968767 L 666.408714 131.442725 L 668.835797 127.072933 L 673.679548 113.541683 L 676.038923 109.166682 L 677.044131 104.79689 L 679.231631 100.718765 L 680.648298 95.64064 L 703.158716 42.34897 L 707.294133 38.270844 L 712.611842 35.140636 L 721.830592 36.083344 L 726.674343 35.848969 L 731.226426 35.375011 L 735.596218 36.083344 L 740.679552 36.557303 L 745.049344 37.562511 L 746.231636 42.640636 L 744.575386 49.140637 L 739.96601 57.651054 L 738.726427 62.197929 L 734.648302 70.942721 L 732.226426 75.312513 L 711.137883 125.119808 L 706.825383 132.859392 L 705.111841 138.239601 L 695.658716 160.213561 L 692.997257 164.588561 L 691.58059 168.723978 L 689.158715 173.802103 L 687.679548 178.651062 L 683.070173 186.390646 L 681.653506 191.468771 L 678.466006 198.203146 L 673.148297 205.234397 Z M 677.752464 222.901065 L 671.257672 220.953148 L 668.596214 215.635439 L 672.434756 212.739606 L 677.752464 210.552106 L 682.36184 206.182314 L 684.54934 202.578147 L 695.893091 175.223978 L 698.314966 171.145853 L 703.398299 157.322935 L 708.002466 149.109393 L 732.93476 91.031264 L 735.12226 87.369806 L 737.30976 82.817722 L 738.726427 77.973972 L 745.283719 65.151054 L 746.762886 60.072929 L 748.653511 55.229179 L 752.788928 50.854178 L 757.872261 50.38022 L 758.580595 56.406262 L 756.62747 62.437513 L 754.205594 66.57293 L 752.554553 71.651055 L 750.367053 75.312513 L 748.887886 79.864597 L 723.721217 137.468767 L 721.059759 140.895851 L 719.643092 145.442726 L 696.424341 198.97398 L 694.002466 202.812522 L 690.575382 212.505231 L 688.387882 216.401064 L 684.075382 220.953148 Z M 665.16913 113.541683 L 662.038922 111.119807 L 659.851422 106.744807 L 658.13788 101.666682 L 656.247255 97.291682 L 655.007671 92.687515 L 652.585796 87.901056 L 651.403504 83.526056 L 646.794129 74.312513 L 645.554546 68.994805 L 643.898296 65.151054 L 641.716004 60.307304 L 640.002462 55.697929 L 640.710795 51.328137 L 645.788921 51.802095 L 650.398296 56.645846 L 667.591005 97.76564 L 668.596214 105.031265 L 667.830589 111.354182 Z M 665.16913 113.541683 " stroke="#ffd700" stroke-width="9.075225" stroke-opacity="1" stroke-miterlimit="4"/></svg>